simulation
nRows=75
nColumns=15
endheader
time  TH_x TH_y TH_z SC_y  SC_z  SC_x  AC_y  AC_z  AC_x  GH_y  GH_z  GH_yy  EL_x  PS_y
0.770000  0.000000  0.000000  0.000000  -31.054668  -0.366244  6.852178  54.778848  4.359921  -8.056087  27.932165  30.060853  -14.777477  20.718621  0.000000
0.780000  0.000000  0.000000  0.000000  -31.072784  -0.305555  6.956807  54.782324  4.587338  -7.983077  27.769240  30.472001  -14.841242  20.680974  0.000000
0.790000  0.000000  0.000000  0.000000  -31.091238  -0.244284  7.061722  54.785341  4.817558  -7.909257  27.608606  30.882838  -14.906156  20.643243  0.000000
0.800000  0.000000  0.000000  0.000000  -31.110022  -0.182475  7.166840  54.787918  5.050447  -7.834660  27.450256  31.293237  -14.972186  20.605440  0.000000
0.810000  0.000000  0.000000  0.000000  -31.129127  -0.120172  7.272082  54.790071  5.285876  -7.759320  27.294183  31.703074  -15.039299  20.567575  0.000000
0.820000  0.000000  0.000000  0.000000  -31.148544  -0.057419  7.377365  54.791816  5.523716  -7.683267  27.140382  32.112222  -15.107464  20.529661  0.000000
0.830000  0.000000  0.000000  0.000000  -31.168262  0.005743  7.482611  54.793171  5.763838  -7.606536  26.988846  32.520560  -15.176649  20.491709  0.000000
0.840000  0.000000  0.000000  0.000000  -31.188273  0.069269  7.587743  54.794150  6.006115  -7.529157  26.839568  32.927965  -15.246821  20.453731  0.000000
0.850000  0.000000  0.000000  0.000000  -31.208569  0.133120  7.692682  54.794770  6.250421  -7.451163  26.692541  33.334317  -15.317949  20.415736  0.000000
0.860000  0.000000  0.000000  0.000000  -31.229139  0.197252  7.797353  54.795047  6.496633  -7.372585  26.547759  33.739497  -15.390002  20.377738  0.000000
0.870000  0.000000  0.000000  0.000000  -31.249975  0.261626  7.901682  54.794996  6.744626  -7.293453  26.405216  34.143387  -15.462949  20.339746  0.000000
0.880000  0.000000  0.000000  0.000000  -31.271067  0.326200  8.005594  54.794633  6.994280  -7.213799  26.264903  34.545872  -15.536758  20.301771  0.000000
0.890000  0.000000  0.000000  0.000000  -31.292408  0.390936  8.109017  54.793973  7.245472  -7.133654  26.126814  34.946835  -15.611400  20.263825  0.000000
0.900000  0.000000  0.000000  0.000000  -31.313987  0.455794  8.211879  54.793030  7.498084  -7.053047  25.990943  35.346163  -15.686842  20.225918  0.000000
0.910000  0.000000  0.000000  0.000000  -31.335797  0.520734  8.314110  54.791820  7.751997  -6.972008  25.857282  35.743744  -15.763054  20.188061  0.000000
0.920000  0.000000  0.000000  0.000000  -31.357827  0.585719  8.415640  54.790357  8.007094  -6.890568  25.725824  36.139467  -15.840008  20.150264  0.000000
0.930000  0.000000  0.000000  0.000000  -31.380070  0.650710  8.516402  54.788656  8.263260  -6.808756  25.596562  36.533222  -15.917671  20.112537  0.000000
0.940000  0.000000  0.000000  0.000000  -31.402517  0.715671  8.616327  54.786730  8.520379  -6.726600  25.469488  36.924901  -15.996016  20.074891  0.000000
0.950000  0.000000  0.000000  0.000000  -31.425158  0.780565  8.715350  54.784593  8.778339  -6.644130  25.344596  37.314396  -16.075011  20.037336  0.000000
0.960000  0.000000  0.000000  0.000000  -31.447985  0.845354  8.813406  54.782260  9.037027  -6.561375  25.221878  37.701603  -16.154627  19.999882  0.000000
0.970000  0.000000  0.000000  0.000000  -31.470990  0.910004  8.910430  54.779743  9.296332  -6.478363  25.101327  38.086416  -16.234836  19.962539  0.000000
0.980000  0.000000  0.000000  0.000000  -31.494163  0.974480  9.006359  54.777056  9.556145  -6.395121  24.982935  38.468733  -16.315608  19.925317  0.000000
0.990000  0.000000  0.000000  0.000000  -31.517497  1.038746  9.101133  54.774213  9.816358  -6.311678  24.866695  38.848452  -16.396914  19.888226  0.000000
1.000000  0.000000  0.000000  0.000000  -31.540982  1.102768  9.194690  54.771225  10.076862  -6.228062  24.752599  39.225473  -16.478726  19.851275  0.000000
1.010000  0.000000  0.000000  0.000000  -31.564610  1.166512  9.286970  54.768106  10.337553  -6.144298  24.640639  39.599697  -16.561015  19.814474  0.000000
1.020000  0.000000  0.000000  0.000000  -31.588372  1.229945  9.377915  54.764869  10.598325  -6.060415  24.530808  39.971025  -16.643753  19.777832  0.000000
1.030000  0.000000  0.000000  0.000000  -31.612260  1.293035  9.467468  54.761525  10.859076  -5.976439  24.423099  40.339363  -16.726911  19.741359  0.000000
1.040000  0.000000  0.000000  0.000000  -31.636266  1.355749  9.555571  54.758086  11.119702  -5.892396  24.317502  40.704614  -16.810463  19.705064  0.000000
1.050000  0.000000  0.000000  0.000000  -31.660381  1.418055  9.642170  54.754565  11.380103  -5.808313  24.214010  41.066686  -16.894379  19.668957  0.000000
1.060000  0.000000  0.000000  0.000000  -31.684597  1.479922  9.727211  54.750974  11.640178  -5.724216  24.112616  41.425485  -16.978633  19.633045  0.000000
1.070000  0.000000  0.000000  0.000000  -31.708905  1.541319  9.810640  54.747322  11.899831  -5.640129  24.013311  41.780922  -17.063197  19.597339  0.000000
1.080000  0.000000  0.000000  0.000000  -31.733297  1.602217  9.892405  54.743623  12.158962  -5.556079  23.916087  42.132906  -17.148044  19.561846  0.000000
1.090000  0.000000  0.000000  0.000000  -31.757765  1.662585  9.972455  54.739887  12.417476  -5.472090  23.820937  42.481349  -17.233148  19.526577  0.000000
1.100000  0.000000  0.000000  0.000000  -31.782301  1.722394  10.050740  54.736125  12.675279  -5.388187  23.727851  42.826164  -17.318481  19.491539  0.000000
1.110000  0.000000  0.000000  0.000000  -31.806896  1.781616  10.127212  54.732347  12.932276  -5.304394  23.636822  43.167265  -17.404017  19.456740  0.000000
1.120000  0.000000  0.000000  0.000000  -31.831542  1.840222  10.201822  54.728565  13.188376  -5.220736  23.547841  43.504569  -17.489729  19.422191  0.000000
1.130000  0.000000  0.000000  0.000000  -31.856232  1.898185  10.274525  54.724787  13.443487  -5.137237  23.460900  43.837992  -17.575592  19.387897  0.000000
1.140000  0.000000  0.000000  0.000000  -31.880956  1.955477  10.345274  54.721025  13.697518  -5.053920  23.375990  44.167453  -17.661580  19.353869  0.000000
1.150000  0.000000  0.000000  0.000000  -31.905707  2.012073  10.414025  54.717288  13.950383  -4.970809  23.293104  44.492871  -17.747666  19.320114  0.000000
1.160000  0.000000  0.000000  0.000000  -31.930478  2.067944  10.480734  54.713586  14.201993  -4.887926  23.212231  44.814168  -17.833825  19.286640  0.000000
1.170000  0.000000  0.000000  0.000000  -31.955259  2.123067  10.545360  54.709929  14.452261  -4.805295  23.133365  45.131266  -17.920032  19.253455  0.000000
1.180000  0.000000  0.000000  0.000000  -31.980043  2.177415  10.607860  54.706324  14.701104  -4.722938  23.056495  45.444089  -18.006261  19.220567  0.000000
1.190000  0.000000  0.000000  0.000000  -32.004822  2.230965  10.668196  54.702783  14.948437  -4.640877  22.981614  45.752562  -18.092488  19.187983  0.000000
1.200000  0.000000  0.000000  0.000000  -32.029589  2.283691  10.726327  54.699312  15.194177  -4.559134  22.908712  46.056611  -18.178688  19.155712  0.000000
1.210000  0.000000  0.000000  0.000000  -32.054334  2.335571  10.782215  54.695922  15.438244  -4.477731  22.837781  46.356164  -18.264836  19.123760  0.000000
1.220000  0.000000  0.000000  0.000000  -32.079051  2.386582  10.835825  54.692620  15.680558  -4.396690  22.768812  46.651150  -18.350908  19.092135  0.000000
1.230000  0.000000  0.000000  0.000000  -32.103732  2.436700  10.887119  54.689415  15.921039  -4.316031  22.701795  46.941500  -18.436880  19.060845  0.000000
1.240000  0.000000  0.000000  0.000000  -32.128369  2.485903  10.936064  54.686315  16.159611  -4.235775  22.636722  47.227145  -18.522727  19.029896  0.000000
1.250000  0.000000  0.000000  0.000000  -32.152954  2.534170  10.982625  54.683326  16.396196  -4.155943  22.573583  47.508019  -18.608425  18.999296  0.000000
1.260000  0.000000  0.000000  0.000000  -32.177480  2.581480  11.026770  54.680458  16.630720  -4.076556  22.512370  47.784056  -18.693952  18.969052  0.000000
1.270000  0.000000  0.000000  0.000000  -32.201939  2.627813  11.068468  54.677718  16.863110  -3.997633  22.453072  48.055192  -18.779283  18.939170  0.000000
1.280000  0.000000  0.000000  0.000000  -32.226322  2.673147  11.107687  54.675112  17.093291  -3.919194  22.395682  48.321364  -18.864396  18.909657  0.000000
1.290000  0.000000  0.000000  0.000000  -32.250624  2.717465  11.144400  54.672648  17.321193  -3.841258  22.340189  48.582510  -18.949267  18.880521  0.000000
1.300000  0.000000  0.000000  0.000000  -32.274836  2.760745  11.178576  54.670332  17.546747  -3.763845  22.286583  48.838570  -19.033874  18.851767  0.000000
1.310000  0.000000  0.000000  0.000000  -32.298951  2.802971  11.210190  54.668172  17.769882  -3.686974  22.234857  49.089486  -19.118193  18.823402  0.000000
1.320000  0.000000  0.000000  0.000000  -32.322960  2.844123  11.239215  54.666172  17.990531  -3.610663  22.184999  49.335200  -19.202203  18.795433  0.000000
1.330000  0.000000  0.000000  0.000000  -32.346858  2.884185  11.265627  54.664341  18.208628  -3.534931  22.137000  49.575656  -19.285881  18.767866  0.000000
1.340000  0.000000  0.000000  0.000000  -32.370636  2.923139  11.289400  54.662683  18.424108  -3.459795  22.090851  49.810799  -19.369205  18.740706  0.000000
1.350000  0.000000  0.000000  0.000000  -32.394287  2.960969  11.310513  54.661204  18.636906  -3.385275  22.046542  50.040575  -19.452153  18.713961  0.000000
1.360000  0.000000  0.000000  0.000000  -32.417804  2.997659  11.328944  54.659911  18.846960  -3.311386  22.004063  50.264933  -19.534704  18.687635  0.000000
1.370000  0.000000  0.000000  0.000000  -32.441179  3.033193  11.344671  54.658807  19.054209  -3.238146  21.963405  50.483821  -19.616835  18.661736  0.000000
1.380000  0.000000  0.000000  0.000000  -32.464405  3.067556  11.357676  54.657899  19.258591  -3.165573  21.924556  50.697190  -19.698526  18.636268  0.000000
1.390000  0.000000  0.000000  0.000000  -32.487476  3.100734  11.367940  54.657192  19.460049  -3.093683  21.887508  50.904992  -19.779756  18.611237  0.000000
1.400000  0.000000  0.000000  0.000000  -32.510383  3.132712  11.375446  54.656690  19.658524  -3.022493  21.852251  51.107180  -19.860503  18.586649  0.000000
1.410000  0.000000  0.000000  0.000000  -32.533119  3.163478  11.380176  54.656397  19.853960  -2.952018  21.818773  51.303708  -19.940748  18.562509  0.000000
1.420000  0.000000  0.000000  0.000000  -32.555678  3.193018  11.382116  54.656319  20.046301  -2.882275  21.787066  51.494533  -20.020468  18.538823  0.000000
1.430000  0.000000  0.000000  0.000000  -32.578052  3.221319  11.381252  54.656459  20.235494  -2.813279  21.757118  51.679612  -20.099645  18.515596  0.000000
1.440000  0.000000  0.000000  0.000000  -32.600235  3.248371  11.377571  54.656821  20.421485  -2.745046  21.728920  51.858903  -20.178258  18.492833  0.000000
1.450000  0.000000  0.000000  0.000000  -32.622219  3.274160  11.371060  54.657409  20.604222  -2.677590  21.702461  52.032366  -20.256287  18.470539  0.000000
1.460000  0.000000  0.000000  0.000000  -32.643997  3.298677  11.361709  54.658226  20.783657  -2.610926  21.677731  52.199963  -20.333712  18.448719  0.000000
1.470000  0.000000  0.000000  0.000000  -32.665563  3.321911  11.349508  54.659276  20.959738  -2.545069  21.654719  52.361655  -20.410513  18.427377  0.000000
1.480000  0.000000  0.000000  0.000000  -32.686909  3.343852  11.334447  54.660562  21.132419  -2.480033  21.633415  52.517408  -20.486672  18.406520  0.000000
1.490000  0.000000  0.000000  0.000000  -32.708029  3.364490  11.316520  54.662086  21.301653  -2.415832  21.613808  52.667185  -20.562169  18.386150  0.000000
1.500000  0.000000  0.000000  0.000000  -32.728915  3.383817  11.295720  54.663853  21.467394  -2.352480  21.595887  52.810954  -20.636986  18.366273  0.000000
1.510000  0.000000  0.000000  0.000000  -32.749562  3.401824  11.272041  54.665863  21.629598  -2.289989  21.579643  52.948683  -20.711103  18.346894  0.000000
